<svg version="1.1" id="Layer_1" xmlns="http://www.w3.org/2000/svg" xmlns:xlink="http://www.w3.org/1999/xlink" x="0px" y="0px"
	 viewBox="0 0 40 40" style="enable-background:new 0 0 40 40;" xml:space="preserve">
<style type="text/css">
	.st0{fill:#D7EFF6;}
	.st1{fill:#0074A2;}
</style>
<path class="st0" d="M35.3,8.8c0-2.3-7.7-4.2-17.1-4.2C8.7,4.6,1,6.5,1,8.8v25.9c0,2.3,7.7,4.2,17.1,4.2c9.5,0,17.1-1.9,17.1-4.2
	L35.3,8.8L35.3,8.8z"/>
<path class="st1" d="M26.7,36.5c-0.4,0-0.8-0.3-0.8-0.8v-1.5c0,0,0,0,0-0.1h0c0-3.7-0.6-7.3-1.8-10.8l-0.3-0.8
	c-0.7-2-1.7-3.9-2.8-5.8c-1.1,1.8-2.1,3.8-2.8,5.8L18,23.4c-1.2,3.4-1.8,7.1-1.8,10.7l0,1.5c0,0.4-0.3,0.8-0.8,0.8
	c-0.4,0-0.8-0.3-0.8-0.7c0,0,0-0.1,0-0.1l0-0.2c0,0,0-0.1,0-0.1v-1.1c0,0,0,0,0-0.1c0-3.8,0.6-7.6,1.9-11.2l0.3-0.8
	c0.9-2.5,2.1-4.9,3.6-7.1c0.1-0.2,0.4-0.3,0.6-0.3l0,0c0.3,0,0.5,0.1,0.6,0.3c1.5,2.2,2.7,4.6,3.6,7.1l0.3,0.8
	c1.2,3.6,1.9,7.4,1.9,11.2c0,0,0,0,0,0c0,0,0,0.1,0,0.1l0,1.5C27.5,36.2,27.1,36.5,26.7,36.5z"/>
<path class="st1" d="M21.1,24.7c-0.7,0-1.2,0.5-1.2,1.2c0,0.7,0.5,1.2,1.2,1.2c0.7,0,1.2-0.5,1.2-1.2C22.3,25.3,21.8,24.8,21.1,24.7
	z"/>
<path class="st1" d="M21.1,28.4c-0.7,0-1.2,0.5-1.2,1.2c0,0.7,0.5,1.2,1.2,1.2c0.7,0,1.2-0.5,1.2-1.2C22.3,28.9,21.8,28.4,21.1,28.4
	z"/>
<path class="st1" d="M21.1,32c-0.7,0-1.2,0.5-1.2,1.2c0,0.7,0.5,1.2,1.2,1.2c0.7,0,1.2-0.5,1.2-1.2C22.3,32.6,21.8,32,21.1,32z"/>
<path class="st1" d="M21.1,36.9c-9,0-18-1.7-18-5V5.8c0-3.3,9.1-5,18-5s18,1.7,18,5v26.1C39.1,35.2,30.1,36.9,21.1,36.9z M21.1,2.4
	C10.3,2.4,4.6,4.6,4.6,5.8v26.1c0,1.2,5.7,3.5,16.5,3.5s16.5-2.3,16.5-3.5V5.8C37.6,4.6,32,2.4,21.1,2.4z"/>
<path class="st1" d="M3.8,6.6c-0.4,0-0.8-0.3-0.8-0.8c0-0.9,0.6-1.7,1.9-2.4c0.4-0.2,0.8-0.1,1,0.3c0.2,0.4,0.1,0.8-0.3,1
	C4.9,5.2,4.6,5.6,4.6,5.8C4.6,6.3,4.3,6.6,3.8,6.6z"/>
<path class="st1" d="M5.4,4.9c-0.3,0-0.5-0.1-0.7-0.4C4.5,4.1,4.6,3.6,5,3.4c2.9-1.6,9.1-2.6,16.1-2.6c3.1,0,6.1,0.2,8.8,0.6
	c0.4,0.1,0.7,0.4,0.6,0.8c-0.1,0.4-0.4,0.7-0.8,0.6c-2.6-0.4-5.6-0.6-8.6-0.6c-6.7,0-12.7,0.9-15.4,2.4C5.6,4.8,5.5,4.9,5.4,4.9z"/>
<path class="st1" d="M21.1,10.8c-1.2,0-2.4,0-3.5-0.1c-0.4,0-0.7-0.4-0.7-0.8c0-0.4,0.4-0.7,0.8-0.7c1.1,0.1,2.3,0.1,3.5,0.1
	c10.9,0,16.5-2.3,16.5-3.5c0-0.6-1.5-1.7-5.7-2.5c-0.4-0.1-0.7-0.5-0.6-0.9c0.1-0.4,0.5-0.7,0.9-0.6c4.5,0.9,6.9,2.3,6.9,4
	C39.1,9.1,30.1,10.8,21.1,10.8z"/>
<path class="st1" d="M15.4,10.6C15.3,10.6,15.3,10.6,15.4,10.6c-0.9-0.1-1.7-0.2-2.5-0.3c-0.4-0.1-0.7-0.4-0.6-0.8
	c0.1-0.4,0.4-0.7,0.8-0.6c0.8,0.1,1.6,0.2,2.4,0.3c0.4,0,0.7,0.4,0.7,0.8C16.1,10.3,15.7,10.6,15.4,10.6z"/>
</svg>